<svg xmlns="http://www.w3.org/2000/svg" width="530" height="111" viewBox="0 0 530 111" fill="none"><g clip-path="url(#clip0_1339_11)"><path d="M525.794 88.2778H525.716L520.804 101.654H518.242L513.33 88.2778H513.247V101.654H509.944V84.6466H515.272L519.525 96.2466L523.774 84.6466H529.097V101.654H525.794V88.2778ZM497.645 87.5353H492.442V84.6466H506.145V87.5353H500.947V101.654H497.645V87.5353Z" fill="#656565"></path><path d="M348.384 110.945L201.376 34.1361V102.645H180.368L180.276 -0.000171661L327.288 76.4223V8.14733H348.293L348.384 110.945Z" fill="#656565"></path><mask id="mask0_1339_11" style="mask-type:luminance" maskUnits="userSpaceOnUse" x="-22" y="-23" width="574" height="157"><path d="M-21.9814 133.231H551.335V-22.2875H-21.9814V133.231Z" fill="white"></path></mask><g mask="url(#mask0_1339_11)"><path d="M147.787 29.3574H21.8761V48.6024H147.787V29.3574ZM167.674 61.0036C166.927 62.6924 165.921 64.1649 164.665 65.4211C163.404 66.6774 161.927 67.6774 160.235 68.4236C158.541 69.1686 156.711 69.5436 154.742 69.5436H61.8773L21.8761 48.7249V102.682H0.254883L0.491089 22.4374C0.491089 20.4761 0.884866 18.6474 1.67487 16.9586C2.46112 15.2711 3.50615 13.7949 4.8049 12.5374C6.1049 11.2824 7.6149 10.2824 9.34615 9.53487C11.0824 8.78987 12.9299 8.41487 14.8999 8.41487H154.742C156.711 8.41487 158.539 8.78987 160.235 9.53487C161.922 10.2824 163.404 11.2824 164.665 12.5374C165.921 13.7949 166.927 15.2674 167.674 16.9549C168.42 18.6424 168.796 20.4686 168.796 22.4311V55.6461C168.796 57.5311 168.42 59.3161 167.674 61.0036Z" fill="#656565"></path><path d="M451.469 60.3759L451.585 102.09H429.023V60.3759L356.73 8.06085H392.875L440.005 41.9971L487.615 7.82336H523.762L451.469 60.3759Z" fill="#656565"></path></g></g><defs><clipPath id="clip0_1339_11"><rect width="528.843" height="110.945" fill="white" transform="translate(0.254883)"></rect></clipPath></defs></svg>