<svg xmlns="http://www.w3.org/2000/svg" width="301" height="300" viewBox="0 0 301 300" fill="none"><path d="M150.107 17.1032C113.421 17.1032 80.1982 31.9835 56.1443 56.0558C32.0811 80.0731 17.21 113.314 17.21 150.018C17.21 186.695 32.0811 219.913 56.1443 243.94C80.1982 267.98 113.421 282.888 150.107 282.888C186.802 282.888 220.043 267.98 244.06 243.94C268.114 219.913 282.953 186.695 282.953 150.018C282.953 113.314 268.114 80.0731 244.06 56.0558C220.043 31.9835 186.802 17.1032 150.107 17.1032ZM150.107 1.00001C232.386 1.00001 299.098 67.7209 299.098 150.018C299.098 232.288 232.386 299 150.107 299C67.8369 299 1.09766 232.288 1.09766 150.018C1.09766 67.7209 67.8369 1.00001 150.107 1.00001Z" fill="#656565"></path><path d="M79.6366 148.804C79.6366 140.121 73.875 135.188 65.7181 135.188H60.726V162.43H65.5761C73.1606 162.43 79.6366 158.308 79.6366 148.804ZM168.438 158.605L131.66 187.564L98.0481 161.101C93.1979 172.753 81.4778 180.846 67.9806 180.846H39.2139V116.763H67.9806C83.0625 116.763 93.9307 126.353 98.0389 136.571L131.66 110.136L144.113 119.937L113.299 144.156L119.221 148.79L150.026 124.585L162.497 134.359L131.688 158.605L137.601 163.249L168.438 138.999V116.763H190.792V162.141H213.092V180.924H168.438V158.605ZM241.41 162.15H263.701V180.924H219.032V116.763H241.41V162.15Z" fill="#656565"></path></svg>