<svg xmlns="http://www.w3.org/2000/svg" width="567" height="237" viewBox="0 0 567 237" fill="none"><g clip-path="url(#clip0_1339_25)"><path d="M182.237 43.6637H12.8526V12.2724H182.237V43.6637ZM194.339 0.151611H0.744141V55.7538H194.339V0.151611Z" fill="#656565"></path><path d="M12.8526 147.688H0.750977V92.0702H12.8526V114.041H34.4744V92.0702H46.576V147.688H34.4744V124.647H12.8526V147.688Z" fill="#656565"></path><path d="M65.0184 123.139H79.4329C79.1644 119.05 77.4767 116.201 72.7588 116.201C69.1993 116.201 66.0847 117.716 65.0184 123.139ZM74.1819 148.405C61.9038 148.405 53.542 140.665 53.542 127.949C53.542 115.579 61.7274 107.041 72.5824 107.041C84.4155 107.041 90.288 114.958 90.288 126.791V131.24H65.0184C66.4453 137.374 71.2476 138.973 76.0537 138.973C80.2346 138.973 83.2571 138.087 86.9931 135.77H87.4419V144.934C84.2391 147.25 79.6976 148.405 74.1819 148.405Z" fill="#656565"></path><path d="M121.786 124.367L115.557 147.672H104.971L92.8691 108.548V108.103H104.438L111.02 131.501L117.249 108.103H126.681L132.998 131.501L139.672 108.103H150.796V108.548L138.694 147.672H128.104L121.786 124.367Z" fill="#656565"></path><path d="M170.27 148.302C160.661 148.302 156.745 144.477 156.745 135.494V91.8056H168.49V134.689C168.49 137.446 169.556 138.425 171.869 138.425C172.671 138.425 173.829 138.16 174.539 137.891H174.719V147.588C173.741 147.941 172.05 148.298 170.27 148.298" fill="#656565"></path><path d="M189.601 123.139H204.016C203.747 119.05 202.06 116.201 197.342 116.201C193.786 116.201 190.668 117.716 189.601 123.139ZM198.765 148.405C186.487 148.405 178.125 140.665 178.125 127.949C178.125 115.579 186.31 107.041 197.165 107.041C208.999 107.041 214.871 114.958 214.871 126.791V131.24H189.601C191.024 137.374 195.831 138.973 200.633 138.973C204.818 138.973 207.84 138.087 211.58 135.77H212.025V144.934C208.822 147.25 204.284 148.405 198.765 148.405Z" fill="#656565"></path><path d="M263.246 108.103H271.965V117.532H263.246V133.634C263.246 137.105 264.581 138.708 268.141 138.708C269.119 138.708 270.365 138.616 271.7 138.171H271.965V147.423C270.454 147.96 268.141 148.578 264.762 148.578C255.237 148.578 251.502 144.22 251.502 134.167V117.532H236.466V133.634C236.466 137.105 237.8 138.708 241.356 138.708C242.338 138.708 243.585 138.616 244.919 138.171H245.184V147.423C243.673 147.96 241.356 148.578 237.981 148.578C228.457 148.578 224.721 144.22 224.721 134.167V117.532H218.668V108.103H224.721V97.2522H236.466V108.103H251.502V97.2522H263.246V108.103Z" fill="#656565"></path><path d="M311.423 119.15C317.568 119.15 320.498 115.683 320.498 110.7C320.498 105.537 317.568 102.07 311.423 102.07H303.771V119.15H311.423ZM332.78 110.7C332.78 122.802 324.683 129.38 312.401 129.38H303.771V147.438H291.677V91.8209H312.401C324.683 91.8209 332.78 98.4029 332.78 110.681" fill="#656565"></path><path d="M358.679 135.107V131.727C356.899 130.753 354.59 130.396 352.185 130.396C348.361 130.396 346.048 131.816 346.048 135.018C346.048 138.313 348.361 139.736 351.828 139.736C355.119 139.736 357.612 138.045 358.679 135.107ZM359.036 143.649C356.454 146.763 352.634 148.275 348.533 148.275C340.797 148.275 334.476 143.564 334.476 135.195C334.476 127.458 340.797 122.299 349.868 122.299C352.714 122.299 355.656 122.744 358.679 123.63V122.925C358.679 118.652 356.278 116.787 349.964 116.787C345.956 116.787 342.132 117.938 338.837 119.81H338.396V110.378C341.418 108.602 346.761 107.087 352.005 107.087C363.93 107.087 370.424 112.779 370.424 122.744V147.561H359.036V143.649Z" fill="#656565"></path><path d="M376.17 127.742C376.17 115.019 385.161 107.014 396.906 107.014C401.087 107.014 404.999 107.904 407.937 110.037V120.09H407.488C404.907 118.134 401.884 116.975 398.417 116.975C392.545 116.975 388.095 120.984 388.095 127.742C388.095 134.501 392.545 138.417 398.417 138.417C401.884 138.417 404.907 137.258 407.488 135.298H407.937V145.352C404.999 147.488 401.087 148.378 396.906 148.378C385.161 148.378 376.17 140.465 376.17 127.742Z" fill="#656565"></path><path d="M427.108 129.583V147.55H415.367V91.9322H427.108V123.6L438.945 107.942H452.29V108.387L438.055 126.358L452.29 147.086V147.531H438.853L427.108 129.564" fill="#656565"></path><path d="M478.659 135.107V131.727C476.883 130.753 474.567 130.396 472.166 130.396C468.341 130.396 466.028 131.816 466.028 135.018C466.028 138.313 468.341 139.736 471.805 139.736C475.104 139.736 477.593 138.045 478.659 135.107ZM479.016 143.649C476.435 146.763 472.607 148.275 468.518 148.275C460.774 148.275 454.46 143.564 454.46 135.195C454.46 127.458 460.774 122.299 469.856 122.299C472.703 122.299 475.633 122.744 478.659 123.63V122.925C478.659 118.652 476.258 116.787 469.941 116.787C465.94 116.787 462.108 117.938 458.817 119.81H458.372V110.378C461.399 108.602 466.738 107.087 471.985 107.087C483.914 107.087 490.408 112.779 490.408 122.744V147.561H479.016V143.649Z" fill="#656565"></path><path d="M510.265 114.24C512.398 109.879 515.516 107.39 519.877 107.39C521.477 107.39 523.076 107.747 523.694 108.103V119.311H523.253C521.918 118.774 520.318 118.421 518.094 118.421C514.446 118.421 511.6 120.558 510.618 124.647V147.423H498.877V107.839H510.265V114.244" fill="#656565"></path><path d="M554.76 134.186V121.463C552.804 118.617 550.226 117.374 547.284 117.374C542.129 117.374 538.658 121.114 538.658 127.873C538.658 134.631 542.129 138.279 547.284 138.279C550.226 138.279 552.804 137.032 554.76 134.186ZM555.113 143.53C552.623 146.733 548.707 148.509 543.372 148.509C533.226 148.509 526.732 139.261 526.732 127.873C526.732 116.485 533.226 107.145 543.372 107.145C548.531 107.145 552.267 108.748 554.76 111.682V92.0243H566.505V147.604H555.113V143.515" fill="#656565"></path><path d="M0.884766 165.792H35.2296V172.551H8.6252V189.539H32.7364V196.125H8.6252V214.628H35.2296V221.387H0.884766V165.807" fill="#656565"></path><path d="M63.4841 181.442C72.2908 181.442 77.1852 187.226 77.1852 196.739V221.383H69.8015V196.919C69.8015 191.848 67.22 188.2 61.6161 188.2C56.9902 188.2 53.074 191.139 51.7392 195.316V221.383H44.3555V182.259H51.7392V187.951C54.0521 184.303 57.9684 181.457 63.4841 181.457" fill="#656565"></path><path d="M96.9312 182.055H106.985V188.373H96.9312V209.454C96.9312 213.899 99.2441 215.415 103.425 215.415C104.58 215.415 105.826 215.238 106.716 214.881H106.985V221.195C105.918 221.64 104.403 221.997 102.359 221.997C93.1914 221.997 89.5475 217.812 89.5475 210.167V188.373H82.7852V182.055H89.5475V171.653H96.9312V182.055Z" fill="#656565"></path><path d="M119.332 198.012H138.817C138.553 192.232 135.703 187.786 129.654 187.786C124.05 187.786 120.398 191.967 119.332 198.012ZM130.989 222.211C119.508 222.211 111.68 214.559 111.68 202.285C111.68 190.007 118.975 181.469 129.566 181.469C140.332 181.469 145.936 189.209 145.936 200.682V204.065H119.063C119.865 211.982 124.94 215.806 131.967 215.806C136.328 215.806 139.439 214.828 142.91 212.246H143.178V218.744C139.976 221.233 135.791 222.211 130.989 222.211Z" fill="#656565"></path><path d="M162.291 188.193C163.982 184.012 167.722 181.522 171.988 181.522C173.683 181.522 175.194 181.787 175.816 182.144V189.435H175.551C174.481 188.906 172.701 188.638 170.921 188.638C166.921 188.638 163.538 191.303 162.291 195.753V221.283H154.907V182.159H162.291V188.208" fill="#656565"></path><path d="M199.421 215.503C206.717 215.503 210.99 209.722 210.99 201.802C210.99 193.977 206.717 188.108 199.421 188.108C195.417 188.108 191.681 190.509 189.724 194.33V209.369C191.681 213.19 195.417 215.503 199.421 215.503ZM200.668 181.434C212.321 181.434 218.55 190.954 218.55 201.802C218.55 212.661 212.321 222.177 200.668 222.177C195.862 222.177 191.769 219.687 189.724 217.014V236.411H182.337V182.251H189.724V186.697C191.769 183.939 195.862 181.449 200.668 181.449" fill="#656565"></path><path d="M234.709 188.193C236.397 184.012 240.136 181.522 244.406 181.522C246.097 181.522 247.608 181.787 248.23 182.144V189.435H247.965C246.899 188.906 245.119 188.638 243.339 188.638C239.335 188.638 235.956 191.303 234.709 195.753V221.283H227.325V182.159H234.709V188.208" fill="#656565"></path><path d="M258.95 166.406C261.532 166.406 263.664 168.45 263.664 171.032C263.664 173.613 261.532 175.658 258.95 175.658C256.461 175.658 254.232 173.613 254.232 171.032C254.232 168.45 256.461 166.406 258.95 166.406Z" fill="#656565"></path><path d="M255.269 221.333H262.658V182.178H255.269V221.333Z" fill="#656565"></path><path d="M289.022 198.319C294.626 200.095 300.852 202.408 300.852 209.88C300.852 217.889 294.27 221.981 285.82 221.981C280.657 221.981 275.498 220.735 272.56 218.422V211.395H272.916C276.211 214.417 281.102 215.752 285.728 215.752C289.908 215.752 293.648 214.149 293.648 210.77C293.648 207.302 290.537 206.501 284.393 204.456C278.877 202.676 272.74 200.628 272.74 193.248C272.74 185.684 278.965 181.239 286.886 181.239C291.512 181.239 295.604 182.217 298.895 184.441V191.561H298.631C295.432 188.979 291.688 187.464 287.062 187.464C282.436 187.464 279.855 189.512 279.855 192.27C279.855 195.385 282.701 196.271 289.022 198.319Z" fill="#656565"></path><path d="M314.799 198.012H334.28C334.016 192.232 331.169 187.786 325.117 187.786C319.513 187.786 315.865 191.967 314.799 198.012ZM326.452 222.211C314.975 222.211 307.146 214.559 307.146 202.285C307.146 190.007 314.442 181.469 325.028 181.469C335.799 181.469 341.399 189.209 341.399 200.682V204.065H314.53C315.332 211.982 320.403 215.806 327.43 215.806C331.795 215.806 334.905 214.828 338.373 212.246H338.641V218.744C335.442 221.233 331.258 222.211 326.452 222.211Z" fill="#656565"></path></g><defs><clipPath id="clip0_1339_25"><rect width="565.795" height="236.296" fill="white" transform="translate(0.459961)"></rect></clipPath></defs></svg>