<svg xmlns="http://www.w3.org/2000/svg" width="396" height="156" viewBox="0 0 396 156" fill="none"><path d="M32.8979 5.19995H4.79785V33.2999H32.8979V5.19995Z" fill="#656565"></path><path d="M32.198 151.6V50.3001H5.49805V151.5H32.198V151.6ZM208.998 152.6V127.8C205.098 127.8 201.798 127.6 199.398 127.2C196.598 126.8 194.498 125.8 193.098 124.4C191.698 123 190.798 121 190.298 118.3C189.898 115.8 189.698 112.5 189.698 108.5V73.2001H208.998V50.3001H189.698V10.9001H162.998V108.8C162.998 117.1 163.698 124.1 165.098 129.7C166.498 135.2 168.898 139.7 172.198 143.1C175.498 146.5 179.898 148.9 185.198 150.4C190.598 151.9 197.398 152.6 205.498 152.6H208.998ZM361.798 151.6V3.1001H335.098V151.6H361.798ZM137.298 60.3001C129.898 52.3001 119.498 48.3001 106.298 48.3001C99.898 48.3001 93.998 49.6001 88.798 52.2001C83.498 54.8001 79.098 58.4001 75.498 63.0001L74.098 64.9001V63.2001V50.3001H47.798V151.5H74.298V97.6001V101.3C74.298 100.7 74.298 100.1 74.298 99.5001C74.598 90.0001 76.898 83.0001 81.298 78.5001C85.998 73.7001 91.698 71.3001 98.198 71.3001C105.898 71.3001 111.798 73.7001 115.698 78.3001C119.498 82.9001 121.498 89.4001 121.498 97.7001V98.0001V151.5H148.398V94.1001C148.498 79.7001 144.698 68.3001 137.298 60.3001ZM321.298 100.8C321.298 93.5001 319.998 86.7001 317.498 80.3001C314.898 74.0001 311.298 68.4001 306.798 63.6001C302.198 58.8001 296.698 55.1001 290.298 52.4001C283.898 49.7001 276.798 48.4001 269.098 48.4001C261.798 48.4001 254.898 49.8001 248.498 52.5001C242.098 55.3001 236.498 59.0001 231.798 63.7001C227.098 68.4001 223.298 74.0001 220.598 80.4001C217.798 86.8001 216.498 93.7001 216.498 101C216.498 108.3 217.798 115.2 220.398 121.6C222.998 128 226.698 133.6 231.298 138.3C235.898 143 241.598 146.8 248.198 149.5C254.798 152.3 262.098 153.7 269.898 153.7C292.498 153.7 306.498 143.4 314.898 133.8L295.698 119.2C291.698 124 282.098 130.5 270.098 130.5C262.598 130.5 256.398 128.8 251.698 125.3C246.998 121.9 243.798 117.1 242.098 111.2L241.798 110.3H321.298V100.8ZM241.998 91.5001C241.998 84.1001 250.498 71.2001 268.798 71.1001C287.098 71.1001 295.698 84.0001 295.698 91.4001L241.998 91.5001ZM392.198 138.8C391.698 137.6 390.998 136.6 390.098 135.7C389.198 134.8 388.198 134.1 386.998 133.6C385.798 133.1 384.498 132.8 383.198 132.8C381.798 132.8 380.598 133.1 379.398 133.6C378.198 134.1 377.198 134.8 376.298 135.7C375.398 136.6 374.698 137.6 374.198 138.8C373.698 140 373.398 141.3 373.398 142.6C373.398 144 373.698 145.2 374.198 146.4C374.698 147.6 375.398 148.6 376.298 149.5C377.198 150.4 378.198 151.1 379.398 151.6C380.598 152.1 381.898 152.4 383.198 152.4C384.598 152.4 385.798 152.1 386.998 151.6C388.198 151.1 389.198 150.4 390.098 149.5C390.998 148.6 391.698 147.6 392.198 146.4C392.698 145.2 392.998 143.9 392.998 142.6C392.998 141.3 392.698 140 392.198 138.8ZM390.598 145.8C390.198 146.8 389.598 147.7 388.898 148.4C388.198 149.1 387.298 149.7 386.298 150.1C385.298 150.5 384.298 150.7 383.098 150.7C381.998 150.7 380.898 150.5 379.898 150.1C378.898 149.7 377.998 149.1 377.298 148.4C376.598 147.7 375.998 146.8 375.598 145.8C375.198 144.8 374.998 143.8 374.998 142.6C374.998 141.5 375.198 140.4 375.598 139.4C375.998 138.4 376.598 137.5 377.298 136.8C377.998 136.1 378.898 135.5 379.898 135.1C380.898 134.7 381.898 134.5 383.098 134.5C384.198 134.5 385.298 134.7 386.298 135.1C387.298 135.5 388.198 136.1 388.898 136.8C389.598 137.5 390.198 138.4 390.598 139.4C390.998 140.4 391.198 141.4 391.198 142.6C391.198 143.8 390.998 144.8 390.598 145.8ZM384.998 143.5C385.798 143.4 386.398 143.1 386.898 142.6C387.398 142.1 387.698 141.4 387.698 140.4C387.698 139.3 387.398 138.5 386.698 137.9C386.098 137.3 384.998 137 383.698 137H379.298V148.3H381.398V143.7H382.898L385.698 148.3H387.898L384.998 143.5ZM383.898 141.8C383.598 141.8 383.298 141.8 382.898 141.8H381.398V138.6H382.898C383.198 138.6 383.498 138.6 383.898 138.6C384.198 138.6 384.498 138.7 384.798 138.8C385.098 138.9 385.298 139.1 385.398 139.3C385.598 139.5 385.598 139.8 385.598 140.2C385.598 140.6 385.498 140.9 385.398 141.1C385.198 141.3 384.998 141.5 384.798 141.6C384.498 141.7 384.198 141.8 383.898 141.8Z" fill="#656565"></path></svg>