<svg width="797" height="259" viewBox="0 0 797 259" fill="none" xmlns="http://www.w3.org/2000/svg">
<path fill-rule="evenodd" clip-rule="evenodd" d="M795 29.8569C795 44.6895 782.975 56.7137 768.141 56.7137C753.307 56.7137 741.282 44.6895 741.282 29.8569C741.282 15.0242 753.307 3 768.141 3C782.975 3 795 15.0242 795 29.8569ZM259.593 7.47614H213.536C210.938 7.47614 209.03 9.91348 209.653 12.4353L268.856 252.115C269.297 253.901 270.899 255.156 272.739 255.156H315.778C317.589 255.156 319.174 253.94 319.642 252.19L360.401 99.8945C360.666 98.9036 362.073 98.9067 362.334 99.8987L402.372 252.173C402.834 253.931 404.423 255.156 406.24 255.156H448.547C450.374 255.156 451.968 253.918 452.422 252.148L513.79 12.4683C514.438 9.93826 512.527 7.47614 509.915 7.47614H466.832C464.942 7.47614 463.309 8.79975 462.919 10.6495L427.927 176.31C427.708 177.348 426.236 177.375 425.979 176.346L384.515 10.5059C384.07 8.72529 382.47 7.47614 380.635 7.47614H342.862C341.026 7.47614 339.426 8.72529 338.981 10.5059L297.559 176.18C297.3 177.218 295.811 177.179 295.607 176.128L263.52 10.7144C263.155 8.83402 261.509 7.47614 259.593 7.47614ZM578.265 10.0864L489.461 249.766C488.492 252.379 490.425 255.156 493.211 255.156H538.328C540.035 255.156 541.555 254.072 542.11 252.457L604.388 71.4311C604.699 70.5281 605.978 70.5327 606.282 71.4379L667.1 252.43C667.647 254.059 669.174 255.156 670.892 255.156H716.716C719.507 255.156 721.44 252.371 720.463 249.756L630.937 10.0765C630.353 8.51274 628.859 7.47614 627.19 7.47614H582.016C580.343 7.47614 578.846 8.5175 578.265 10.0864ZM124.866 7.47614H7.99528C5.78614 7.47614 4 9.267 4 11.4761V251.156C4 253.365 5.79086 255.156 8 255.156H47.7494C49.9586 255.156 51.7494 253.365 51.7494 251.156V48.5075H120.389C129.342 48.5075 139.787 55.9677 139.787 65.666V101.475C139.787 108.935 130.834 119.38 116.659 119.38H79.6192C77.4101 119.38 75.6242 121.171 75.6242 123.38V151.766C75.6242 152.539 75.8485 153.296 76.2699 153.945L140.843 253.335C141.581 254.471 142.843 255.156 144.197 255.156H189.22C192.373 255.156 194.286 251.678 192.599 249.015L135.416 158.77C135.021 158.148 135.429 157.324 136.159 157.223C175.471 151.783 187.301 119.418 188.283 103.713V64.174C188.283 44.7773 170.377 7.47614 124.866 7.47614ZM748.116 76.1104H787.865C790.075 76.1104 791.865 77.9012 791.865 80.1104V251.156C791.865 253.365 790.075 255.156 787.865 255.156H748.116C745.907 255.156 744.116 253.365 744.116 251.156V80.1104C744.116 77.9012 745.907 76.1104 748.116 76.1104ZM605.344 255.156C620.178 255.156 632.203 243.132 632.203 228.299C632.203 213.467 620.178 201.442 605.344 201.442C590.511 201.442 578.485 213.467 578.485 228.299C578.485 243.132 590.511 255.156 605.344 255.156Z" fill="currentColor"/>
</svg> 